<?xml version="1.0" encoding="UTF-8"?>
<svg id="Layer_2" data-name="Layer 2" xmlns="http://www.w3.org/2000/svg" viewBox="0 0 63.64 58.13">
  <defs>
    <style>
      .cls-1 {
        fill: none;
      }

      .cls-1, .cls-2 {
        stroke-width: 0px;
      }

      .cls-3 {
        opacity: .7;
      }

      .cls-2 {
        fill: #a27d46;
      }
    </style>
  </defs>
  <g id="Layer_1-2" data-name="Layer 1">
    <g class="cls-3">
      <rect class="cls-1" width="63.64" height="58.13"/>
      <g>
        <path id="i" class="cls-2" d="m2.2,14.69v.48c.4,0,.81.05,1.19.17.99.38,1.66,1.3,1.72,2.35v4.05c0,.75-.11,1.5-.74,1.84v.61c3.22-.03,7.28,2.69,12.74,2.69,7.07,0,12.53-5.24,12.53-11.98-.05-6.97-5.74-12.58-12.71-12.53h-.03c-1.06.01-2.11.1-3.15.27-.8.13-1.61.19-2.41.2-1.55.03-3.1-.19-4.58-.64.06,2.74-.43,5.46-1.44,8l.42.14c2.24-3.85,6.61-7.49,11.51-7.49,6.62,0,7.84,5.96,7.84,11.37,0,3.57-.17,6.54-2.8,9.12-1.92,1.91-4.06,3.06-6.16,3.06-3.08,0-6.58-1.22-6.58-5.04v-4.12c0-.51,1.23-2.08,1.82-2.08h3.01v-.48H2.2ZM12.35,3.39c-1.98.83-3.76,2.09-5.18,3.71l-.07-.07,1.33-3.71h3.92v.07Zm7.18,22.67c4.8-2.38,7.45-6.26,7.45-11.68,0-3.66-1.4-7.18-3.92-9.84l-.03.03v-.07l.03.04.04-.04c3.71,2.13,6.01,6.07,6.06,10.35,0,6.67-5.81,10.93-9.62,11.27v-.07h-.01ZM4.93,15.17h5.22v.07l-.57.61c-.33.42-.51.93-.53,1.46v.65c0,.08.01.15.01.24v3.34c.07,1.33.63,2.6,1.57,3.54l-.07.07c-1.51-.59-3.07-1.06-4.66-1.4v-.07c.63-.39.97-1.11.88-1.84v-3.13c.07-1.41-.65-2.74-1.86-3.47v-.07h.01Z"/>
        <path id="i-2" data-name="i" class="cls-2" d="m2.2,43.45h12.18v-.48h-3.01c-.59,0-1.82-1.57-1.82-2.08v-4.12c0-3.82,3.5-5.04,6.58-5.04,2.1,0,4.24,1.15,6.16,3.06,2.63,2.58,2.8,5.55,2.8,9.12,0,5.41-1.22,11.37-7.84,11.37-4.9,0-9.27-3.64-11.51-7.49l-.42.14c1.01,2.54,1.5,5.26,1.44,8,1.48-.45,3.03-.67,4.58-.64.8,0,1.61.07,2.41.2,1.04.17,2.09.26,3.15.27h.03c6.97.05,12.66-5.56,12.71-12.53,0-6.74-5.46-11.98-12.53-11.98-5.46,0-9.52,2.72-12.74,2.69v.61c.63.34.74,1.09.74,1.84v4.05c-.06,1.05-.73,1.97-1.72,2.35-.38.12-.79.17-1.19.17v.48h0Zm10.15,11.36h-3.92l-1.33-3.71.07-.07c1.42,1.62,3.2,2.88,5.18,3.71v.07Zm7.19-22.73v-.07c3.81.34,9.62,4.6,9.62,11.27-.05,4.28-2.35,8.22-6.06,10.35l-.04-.04-.03.04v-.07l.03.03c2.52-2.66,3.92-6.18,3.92-9.84,0-5.42-2.65-9.3-7.45-11.68h.01Zm-14.62,10.88v-.07c1.21-.73,1.93-2.06,1.86-3.47v-3.13c.09-.73-.25-1.45-.88-1.84v-.07c1.59-.34,3.15-.81,4.66-1.4l.07.07c-.94.94-1.5,2.21-1.57,3.54v3.34c0,.09-.01.16-.01.24v.65c.02.53.2,1.04.53,1.46l.57.61v.07h-5.23Z"/>
        <path id="i-3" data-name="i" class="cls-2" d="m61.44,43.44v-.48c-.4,0-.81-.05-1.19-.17-.99-.38-1.66-1.3-1.72-2.35v-4.05c0-.75.11-1.5.74-1.84v-.61c-3.22.03-7.28-2.69-12.74-2.69-7.07,0-12.53,5.24-12.53,11.98.05,6.97,5.74,12.58,12.71,12.53h.03c1.06-.01,2.11-.1,3.15-.27.8-.13,1.61-.19,2.41-.2,1.55-.03,3.1.19,4.58.64-.06-2.74.43-5.46,1.44-8l-.42-.14c-2.24,3.85-6.61,7.49-11.51,7.49-6.62,0-7.84-5.96-7.84-11.37,0-3.57.17-6.54,2.8-9.12,1.92-1.91,4.06-3.06,6.16-3.06,3.08,0,6.58,1.22,6.58,5.04v4.12c0,.51-1.23,2.08-1.82,2.08h-3.01s0,.48,0,.48h12.18s0,0,0,0Zm-10.15,11.3c1.98-.83,3.76-2.09,5.18-3.71l.07.07-1.33,3.71h-3.92v-.07Zm-7.18-22.67c-4.8,2.38-7.45,6.26-7.45,11.68,0,3.66,1.4,7.18,3.92,9.84l.03-.03v.07l-.03-.04-.04.04c-3.71-2.13-6.01-6.07-6.06-10.35,0-6.67,5.81-10.93,9.62-11.27v.07s.01,0,.01,0Zm14.6,10.89h-5.22v-.07l.57-.61c.33-.42.51-.93.53-1.46v-.65c0-.08-.01-.15-.01-.24v-3.34c-.07-1.33-.63-2.6-1.57-3.54l.07-.07c1.51.59,3.07,1.06,4.66,1.4v.07c-.63.39-.97,1.11-.88,1.84v3.13c-.07,1.41.65,2.74,1.86,3.47v.07h-.01Z"/>
        <path id="i-4" data-name="i" class="cls-2" d="m61.44,14.68h-12.18s0,.48,0,.48h3.01c.59,0,1.82,1.57,1.82,2.08v4.12c0,3.82-3.5,5.04-6.58,5.04-2.1,0-4.24-1.15-6.16-3.06-2.63-2.58-2.8-5.55-2.8-9.12,0-5.41,1.22-11.37,7.84-11.37,4.9,0,9.27,3.64,11.51,7.49l.42-.14c-1.01-2.54-1.5-5.26-1.44-8-1.48.45-3.03.67-4.58.64-.8,0-1.61-.07-2.41-.2-1.04-.17-2.09-.26-3.15-.27h-.03c-6.97-.05-12.66,5.56-12.71,12.53,0,6.74,5.46,11.98,12.53,11.98,5.46,0,9.52-2.72,12.74-2.69v-.61c-.63-.34-.74-1.09-.74-1.84v-4.05c.06-1.05.73-1.97,1.72-2.35.38-.12.79-.17,1.19-.17v-.48h0Zm-10.15-11.36h3.92s1.33,3.71,1.33,3.71l-.07.07c-1.42-1.62-3.2-2.88-5.18-3.71v-.07Zm-7.19,22.73v.07c-3.81-.34-9.62-4.6-9.62-11.27.05-4.28,2.35-8.22,6.06-10.35l.04.04.03-.04v.07l-.03-.03c-2.52,2.66-3.92,6.18-3.92,9.84,0,5.42,2.65,9.3,7.45,11.68h-.01Zm14.62-10.88v.07c-1.21.73-1.93,2.06-1.86,3.47v3.13c-.09.73.25,1.45.88,1.84v.07c-1.59.34-3.15.81-4.66,1.4l-.07-.07c.94-.94,1.5-2.21,1.57-3.54v-3.34c0-.09.01-.16.01-.24v-.65c-.02-.53-.2-1.04-.53-1.46l-.57-.61v-.07h5.22s.01,0,.01,0Z"/>
      </g>
    </g>
  </g>
</svg>